<svg width="40" height="40" viewBox="0 0 40 40" fill="none" xmlns="http://www.w3.org/2000/svg">
<rect width="40" height="40" rx="20" fill="#0042DB"/>
<path d="M14.7411 27.8661L22.6072 20L14.7411 12.1339C14.5091 11.899 14.3794 11.5818 14.3804 11.2516C14.3814 10.9214 14.513 10.605 14.7465 10.3715C14.98 10.138 15.2964 10.0064 15.6266 10.0054C15.9568 10.0044 16.274 10.1341 16.5089 10.3661L25.2589 19.1161C25.4933 19.3506 25.625 19.6685 25.625 20C25.625 20.3315 25.4933 20.6495 25.2589 20.8839L16.5089 29.6339C16.274 29.8659 15.9568 29.9956 15.6266 29.9946C15.2964 29.9936 14.98 29.862 14.7465 29.6285C14.513 29.395 14.3814 29.0786 14.3804 28.7484C14.3794 28.4182 14.5091 28.101 14.7411 27.8661Z" fill="white"/>
</svg>
