<svg width="260" height="70" viewBox="0 0 260 70" fill="none" xmlns="http://www.w3.org/2000/svg">
<path d="M29.7982 34.1497V17.3438C29.7982 17.3438 30.0983 14.3428 34.9 14.3428C39.7017 14.3428 39.7017 17.3438 39.7017 17.3438V34.1497C38.1003 33.7275 36.4554 33.4925 34.7999 33.4495C33.1055 33.4061 31.4156 33.6427 29.7982 34.1497Z" fill="#0042DB"/>
<path fill-rule="evenodd" clip-rule="evenodd" d="M29.7982 25.4467C29.7982 25.4467 26.2969 25.5467 26.2969 34.1497L4.88943 53.4565C4.65979 54.1721 4.65979 54.9416 4.88943 55.6572H65.1106C65.3402 54.9416 65.3402 54.1721 65.1106 53.4565L43.2029 34.1497C43.2029 31.5488 43.1028 26.447 39.9017 25.5467C38.2373 25.0859 36.5255 24.8174 34.7999 24.7464C33.1055 24.7031 31.4155 24.9397 29.7982 25.4467ZM35 35.8503C25.3966 35.6502 8.7908 52.6562 8.7908 52.6562C8.7908 52.6562 26.597 37.851 35 38.0511C43.4029 38.2511 61.1092 52.6562 61.1092 52.6562C61.1092 52.6562 44.5033 36.0504 35 35.8503Z" fill="#0042DB"/>
<path d="M81.321 16.5455H86.5455L90.9773 27.3523H91.1818L95.6136 16.5455H100.838V34H96.7301V23.2784H96.5852L92.392 33.8892H89.767L85.5739 23.2188H85.429V34H81.321V16.5455ZM107.245 34H102.711L108.6 16.5455H114.217L120.106 34H115.572L111.472 20.9432H111.336L107.245 34ZM106.64 27.1307H116.117V30.3352H106.64V27.1307ZM126.255 16.5455L129.442 22.0597H129.579L132.8 16.5455H137.522L132.255 25.2727L137.692 34H132.852L129.579 28.4261H129.442L126.17 34H121.363L126.775 25.2727L121.499 16.5455H126.255ZM143.923 16.5455V34H139.704V16.5455H143.923ZM162.415 22.8693H158.153C158.097 22.4318 157.98 22.0369 157.804 21.6847C157.628 21.3324 157.395 21.0312 157.105 20.7812C156.815 20.5312 156.472 20.3409 156.074 20.2102C155.682 20.0739 155.247 20.0057 154.77 20.0057C153.923 20.0057 153.193 20.2131 152.58 20.6278C151.972 21.0426 151.503 21.642 151.173 22.4261C150.849 23.2102 150.688 24.1591 150.688 25.2727C150.688 26.4318 150.852 27.4034 151.182 28.1875C151.517 28.9659 151.986 29.554 152.588 29.9517C153.196 30.3437 153.915 30.5398 154.744 30.5398C155.21 30.5398 155.634 30.4801 156.014 30.3608C156.401 30.2415 156.739 30.0682 157.028 29.8409C157.324 29.608 157.565 29.3267 157.753 28.9972C157.946 28.6619 158.08 28.2841 158.153 27.8636L162.415 27.8892C162.341 28.6619 162.116 29.4233 161.741 30.1733C161.372 30.9233 160.864 31.608 160.216 32.2273C159.568 32.8409 158.778 33.3295 157.847 33.6932C156.92 34.0568 155.858 34.2386 154.659 34.2386C153.08 34.2386 151.665 33.892 150.415 33.1989C149.17 32.5 148.188 31.483 147.466 30.1477C146.744 28.8125 146.384 27.1875 146.384 25.2727C146.384 23.3523 146.75 21.7244 147.483 20.3892C148.216 19.054 149.207 18.0398 150.457 17.3466C151.707 16.6534 153.108 16.3068 154.659 16.3068C155.716 16.3068 156.693 16.4545 157.591 16.75C158.489 17.0398 159.278 17.4659 159.96 18.0284C160.642 18.5852 161.196 19.2699 161.622 20.0824C162.048 20.8949 162.312 21.8239 162.415 22.8693ZM164.829 34V16.5455H169.048V30.5739H176.309V34H164.829ZM178.493 34V16.5455H190.663V19.9716H182.712V23.5511H190.041V26.9858H182.712V30.5739H190.663V34H178.493ZM197.081 34H192.547L198.436 16.5455H204.053L209.942 34H205.408L201.308 20.9432H201.172L197.081 34ZM196.476 27.1307H205.953V30.3352H196.476V27.1307ZM226.676 16.5455V34H223.097L216.151 23.9261H216.04V34H211.821V16.5455H215.452L222.321 26.6023H222.466V16.5455H226.676Z" fill="#0042DB"/>
<path d="M89.0781 44.8182V55H87.5469V46.1307H82.7543V55H81.223V44.8182H89.0781ZM91.3079 57.8636V47.3636H92.7596V48.6016H92.8839C92.9701 48.4425 93.0943 48.2585 93.2567 48.0497C93.4192 47.8409 93.6445 47.6586 93.9329 47.5028C94.2212 47.3438 94.6024 47.2642 95.0763 47.2642C95.6928 47.2642 96.243 47.42 96.7269 47.7315C97.2108 48.0431 97.5903 48.4922 97.8654 49.0788C98.1438 49.6655 98.283 50.3714 98.283 51.1967C98.283 52.022 98.1455 52.7296 97.8704 53.3196C97.5953 53.9062 97.2174 54.3587 96.7369 54.6768C96.2563 54.9917 95.7077 55.1491 95.0913 55.1491C94.6272 55.1491 94.2478 55.0713 93.9528 54.9155C93.6611 54.7597 93.4324 54.5774 93.2667 54.3686C93.101 54.1598 92.9734 53.9742 92.8839 53.8118H92.7944V57.8636H91.3079ZM92.7646 51.1818C92.7646 51.7187 92.8424 52.1894 92.9982 52.5938C93.154 52.9981 93.3794 53.3146 93.6744 53.5433C93.9693 53.7687 94.3306 53.8814 94.7582 53.8814C95.2023 53.8814 95.5735 53.7637 95.8718 53.5284C96.1701 53.2898 96.3955 52.9666 96.5479 52.5589C96.7037 52.1513 96.7816 51.6922 96.7816 51.1818C96.7816 50.678 96.7054 50.2256 96.5529 49.8246C96.4038 49.4235 96.1784 49.107 95.8768 48.875C95.5785 48.643 95.2056 48.527 94.7582 48.527C94.3273 48.527 93.9627 48.638 93.6644 48.8601C93.3694 49.0821 93.1457 49.392 92.9933 49.7898C92.8408 50.1875 92.7646 50.6515 92.7646 51.1818ZM103.165 55.1541C102.449 55.1541 101.824 54.9901 101.291 54.6619C100.757 54.3338 100.343 53.8748 100.048 53.2848C99.753 52.6948 99.6055 52.0054 99.6055 51.2166C99.6055 50.4245 99.753 49.7318 100.048 49.1385C100.343 48.5452 100.757 48.0845 101.291 47.7564C101.824 47.4283 102.449 47.2642 103.165 47.2642C103.881 47.2642 104.506 47.4283 105.039 47.7564C105.573 48.0845 105.987 48.5452 106.282 49.1385C106.577 49.7318 106.725 50.4245 106.725 51.2166C106.725 52.0054 106.577 52.6948 106.282 53.2848C105.987 53.8748 105.573 54.3338 105.039 54.6619C104.506 54.9901 103.881 55.1541 103.165 55.1541ZM103.17 53.9062C103.634 53.9062 104.019 53.7836 104.324 53.5384C104.628 53.2931 104.854 52.9666 105 52.5589C105.149 52.1513 105.223 51.7022 105.223 51.2116C105.223 50.7244 105.149 50.277 105 49.8693C104.854 49.4583 104.628 49.1286 104.324 48.88C104.019 48.6314 103.634 48.5071 103.17 48.5071C102.703 48.5071 102.315 48.6314 102.007 48.88C101.702 49.1286 101.475 49.4583 101.326 49.8693C101.18 50.277 101.107 50.7244 101.107 51.2116C101.107 51.7022 101.18 52.1513 101.326 52.5589C101.475 52.9666 101.702 53.2931 102.007 53.5384C102.315 53.7836 102.703 53.9062 103.17 53.9062ZM111.67 57.6001V44.8182H113.157V57.6001H111.67ZM111.67 55.1541C111.13 55.1541 110.638 55.0613 110.194 54.8757C109.75 54.6868 109.367 54.4183 109.045 54.0703C108.724 53.7223 108.475 53.3063 108.3 52.8224C108.127 52.3385 108.041 51.8033 108.041 51.2166C108.041 50.6233 108.127 50.0848 108.3 49.6009C108.475 49.117 108.724 48.701 109.045 48.353C109.367 48.005 109.75 47.7365 110.194 47.5476C110.638 47.3587 111.13 47.2642 111.67 47.2642H112.038V55.1541H111.67ZM111.67 53.9013H111.879V48.517H111.67C111.312 48.517 111.001 48.59 110.736 48.7358C110.47 48.8783 110.25 49.0755 110.074 49.3274C109.899 49.576 109.766 49.8627 109.677 50.1875C109.59 50.5123 109.547 50.8554 109.547 51.2166C109.547 51.7005 109.625 52.1463 109.781 52.554C109.937 52.9583 110.172 53.2848 110.487 53.5334C110.802 53.7786 111.196 53.9013 111.67 53.9013ZM113.157 55.1541H112.784V47.2642H113.157C113.697 47.2642 114.189 47.3587 114.633 47.5476C115.077 47.7365 115.459 48.005 115.777 48.353C116.098 48.701 116.345 49.117 116.518 49.6009C116.693 50.0848 116.781 50.6233 116.781 51.2166C116.781 51.8033 116.693 52.3385 116.518 52.8224C116.345 53.3063 116.098 53.7223 115.777 54.0703C115.459 54.4183 115.077 54.6868 114.633 54.8757C114.189 55.0613 113.697 55.1541 113.157 55.1541ZM113.157 53.9013C113.515 53.9013 113.826 53.8317 114.091 53.6925C114.357 53.55 114.577 53.3544 114.753 53.1058C114.928 52.8539 115.059 52.5672 115.145 52.2457C115.232 51.9209 115.275 51.5779 115.275 51.2166C115.275 50.736 115.197 50.2919 115.041 49.8842C114.889 49.4732 114.655 49.1435 114.34 48.8949C114.025 48.643 113.631 48.517 113.157 48.517H112.943V53.9013H113.157ZM121.724 55.1541C120.972 55.1541 120.324 54.9934 119.78 54.6719C119.24 54.3471 118.822 53.8913 118.527 53.3047C118.236 52.7147 118.09 52.0237 118.09 51.2315C118.09 50.4493 118.236 49.7599 118.527 49.1634C118.822 48.5668 119.233 48.1011 119.76 47.7663C120.291 47.4316 120.91 47.2642 121.62 47.2642C122.051 47.2642 122.468 47.3355 122.873 47.478C123.277 47.6205 123.64 47.8442 123.961 48.1491C124.283 48.4541 124.536 48.8501 124.722 49.3374C124.908 49.8213 125 50.4096 125 51.1023V51.6293H118.93V50.5156H123.544C123.544 50.1245 123.464 49.7782 123.305 49.4766C123.146 49.1716 122.922 48.9313 122.634 48.7557C122.349 48.58 122.014 48.4922 121.63 48.4922C121.212 48.4922 120.847 48.5949 120.536 48.8004C120.228 49.0026 119.989 49.2678 119.82 49.5959C119.654 49.9207 119.571 50.2737 119.571 50.6548V51.5249C119.571 52.0353 119.661 52.4695 119.84 52.8274C120.022 53.1854 120.276 53.4588 120.6 53.6477C120.925 53.8333 121.305 53.9261 121.739 53.9261C122.021 53.9261 122.278 53.8864 122.51 53.8068C122.742 53.724 122.942 53.6013 123.111 53.4389C123.28 53.2765 123.409 53.076 123.499 52.8374L124.906 53.0909C124.793 53.5052 124.591 53.8681 124.299 54.1797C124.011 54.4879 123.648 54.7282 123.211 54.9006C122.776 55.0696 122.281 55.1541 121.724 55.1541ZM129.866 55.1541C129.127 55.1541 128.491 54.9867 127.957 54.652C127.427 54.3139 127.019 53.8482 126.734 53.255C126.449 52.6617 126.307 51.9822 126.307 51.2166C126.307 50.4411 126.452 49.7566 126.744 49.1634C127.036 48.5668 127.447 48.1011 127.977 47.7663C128.507 47.4316 129.132 47.2642 129.851 47.2642C130.431 47.2642 130.948 47.3719 131.403 47.5874C131.857 47.7995 132.223 48.0978 132.501 48.4822C132.783 48.8667 132.95 49.3158 133.003 49.8295H131.557C131.477 49.4716 131.295 49.1634 131.01 48.9048C130.728 48.6463 130.35 48.517 129.876 48.517C129.462 48.517 129.099 48.6264 128.787 48.8452C128.479 49.0606 128.239 49.3688 128.067 49.7699C127.894 50.1676 127.808 50.6383 127.808 51.1818C127.808 51.7386 127.893 52.2192 128.062 52.6236C128.231 53.0279 128.469 53.3411 128.778 53.5632C129.089 53.7853 129.455 53.8963 129.876 53.8963C130.158 53.8963 130.413 53.8449 130.642 53.7422C130.874 53.6361 131.068 53.4853 131.224 53.2898C131.383 53.0942 131.494 52.8589 131.557 52.5838H133.003C132.95 53.0777 132.79 53.5185 132.521 53.9062C132.253 54.294 131.893 54.599 131.442 54.821C130.995 55.0431 130.47 55.1541 129.866 55.1541ZM134.593 55V47.3636H136.08V55H134.593ZM135.344 46.1854C135.085 46.1854 134.863 46.0992 134.678 45.9268C134.495 45.7512 134.404 45.5424 134.404 45.3004C134.404 45.0552 134.495 44.8464 134.678 44.674C134.863 44.4983 135.085 44.4105 135.344 44.4105C135.602 44.4105 135.823 44.4983 136.005 44.674C136.191 44.8464 136.283 45.0552 136.283 45.3004C136.283 45.5424 136.191 45.7512 136.005 45.9268C135.823 46.0992 135.602 46.1854 135.344 46.1854ZM139.536 52.9169L142.902 47.3636H144.503V55H143.046V49.4418L139.695 55H138.079V47.3636H139.536V52.9169ZM142.265 44.7784H143.488C143.488 45.3385 143.29 45.7943 142.892 46.1456C142.497 46.4936 141.964 46.6676 141.291 46.6676C140.622 46.6676 140.09 46.4936 139.695 46.1456C139.301 45.7943 139.104 45.3385 139.104 44.7784H140.322C140.322 45.027 140.394 45.2474 140.54 45.4396C140.686 45.6286 140.936 45.723 141.291 45.723C141.639 45.723 141.888 45.6286 142.037 45.4396C142.189 45.2507 142.265 45.0303 142.265 44.7784ZM151.677 50.5405V51.8281H147.54V50.5405H151.677ZM147.958 47.3636V55H146.501V47.3636H147.958ZM152.716 47.3636V55H151.264V47.3636H152.716ZM156.927 55.169C156.443 55.169 156.005 55.0795 155.614 54.9006C155.223 54.7183 154.913 54.4548 154.684 54.1101C154.459 53.7654 154.346 53.3428 154.346 52.8423C154.346 52.4115 154.429 52.0568 154.595 51.7784C154.761 51.5 154.984 51.2796 155.266 51.1172C155.548 50.9548 155.863 50.8321 156.211 50.7493C156.559 50.6664 156.913 50.6035 157.275 50.5604C157.732 50.5073 158.103 50.4643 158.388 50.4311C158.673 50.3946 158.881 50.3366 159.01 50.2571C159.139 50.1776 159.204 50.0483 159.204 49.8693V49.8345C159.204 49.4003 159.081 49.0639 158.836 48.8253C158.594 48.5866 158.233 48.4673 157.752 48.4673C157.251 48.4673 156.857 48.5784 156.569 48.8004C156.284 49.0192 156.086 49.2628 155.977 49.5312L154.58 49.2131C154.746 48.7491 154.988 48.3745 155.306 48.0895C155.627 47.8011 155.997 47.5923 156.415 47.4631C156.832 47.3305 157.271 47.2642 157.732 47.2642C158.037 47.2642 158.36 47.3007 158.702 47.3736C159.046 47.4432 159.368 47.5724 159.666 47.7614C159.968 47.9503 160.215 48.2204 160.407 48.5717C160.599 48.9197 160.695 49.3722 160.695 49.929V55H159.243V53.956H159.184C159.088 54.1482 158.943 54.3371 158.751 54.5227C158.559 54.7083 158.312 54.8625 158.01 54.9851C157.709 55.1077 157.348 55.169 156.927 55.169ZM157.25 53.9759C157.661 53.9759 158.012 53.8946 158.304 53.7322C158.599 53.5698 158.823 53.3577 158.975 53.0959C159.131 52.8307 159.209 52.5473 159.209 52.2457V51.2614C159.156 51.3144 159.053 51.3641 158.9 51.4105C158.751 51.4536 158.581 51.4917 158.388 51.5249C158.196 51.5547 158.009 51.5829 157.827 51.6094C157.644 51.6326 157.492 51.6525 157.369 51.669C157.081 51.7055 156.817 51.7668 156.579 51.853C156.343 51.9392 156.154 52.0634 156.012 52.2259C155.873 52.3849 155.803 52.5971 155.803 52.8622C155.803 53.2301 155.939 53.5085 156.211 53.6974C156.483 53.883 156.829 53.9759 157.25 53.9759ZM167.553 47.3636L169.239 50.3366L170.939 47.3636H172.565L170.183 51.1818L172.585 55H170.959L169.239 52.1463L167.524 55H165.893L168.269 51.1818L165.923 47.3636H167.553ZM174.091 55V47.3636H175.578V55H174.091ZM174.842 46.1854C174.583 46.1854 174.361 46.0992 174.176 45.9268C173.993 45.7512 173.902 45.5424 173.902 45.3004C173.902 45.0552 173.993 44.8464 174.176 44.674C174.361 44.4983 174.583 44.4105 174.842 44.4105C175.1 44.4105 175.321 44.4983 175.503 44.674C175.689 44.8464 175.781 45.0552 175.781 45.3004C175.781 45.5424 175.689 45.7512 175.503 45.9268C175.321 46.0992 175.1 46.1854 174.842 46.1854ZM181.863 53.1605L184.329 47.3636H185.612L182.415 55H181.311L178.179 47.3636H179.447L181.863 53.1605ZM179.034 47.3636V55H177.577V47.3636H179.034ZM184.732 55V47.3636H186.178V55H184.732ZM194.289 47.3636V55H192.838V47.3636H194.289ZM193.658 50.9084V52.1911C193.429 52.2839 193.187 52.3667 192.932 52.4396C192.677 52.5092 192.408 52.5639 192.127 52.6037C191.845 52.6435 191.552 52.6634 191.247 52.6634C190.302 52.6634 189.551 52.433 188.995 51.9723C188.438 51.5083 188.159 50.799 188.159 49.8445V47.3487H189.606V49.8445C189.606 50.2057 189.672 50.4991 189.805 50.7244C189.938 50.9498 190.127 51.1155 190.372 51.2216C190.617 51.3277 190.909 51.3807 191.247 51.3807C191.694 51.3807 192.107 51.3393 192.485 51.2564C192.866 51.1702 193.257 51.0542 193.658 50.9084ZM197.724 52.9169L201.089 47.3636H202.69V55H201.233V49.4418L197.883 55H196.267V47.3636H197.724V52.9169ZM207.905 55.1541C207.166 55.1541 206.53 54.9867 205.996 54.652C205.466 54.3139 205.058 53.8482 204.773 53.255C204.488 52.6617 204.346 51.9822 204.346 51.2166C204.346 50.4411 204.492 49.7566 204.783 49.1634C205.075 48.5668 205.486 48.1011 206.016 47.7663C206.546 47.4316 207.171 47.2642 207.89 47.2642C208.47 47.2642 208.988 47.3719 209.442 47.5874C209.896 47.7995 210.262 48.0978 210.54 48.4822C210.822 48.8667 210.989 49.3158 211.042 49.8295H209.596C209.516 49.4716 209.334 49.1634 209.049 48.9048C208.767 48.6463 208.389 48.517 207.915 48.517C207.501 48.517 207.138 48.6264 206.827 48.8452C206.518 49.0606 206.278 49.3688 206.106 49.7699C205.933 50.1676 205.847 50.6383 205.847 51.1818C205.847 51.7386 205.932 52.2192 206.101 52.6236C206.27 53.0279 206.508 53.3411 206.817 53.5632C207.128 53.7853 207.494 53.8963 207.915 53.8963C208.197 53.8963 208.452 53.8449 208.681 53.7422C208.913 53.6361 209.107 53.4853 209.263 53.2898C209.422 53.0942 209.533 52.8589 209.596 52.5838H211.042C210.989 53.0777 210.829 53.5185 210.56 53.9062C210.292 54.294 209.932 54.599 209.481 54.821C209.034 55.0431 208.509 55.1541 207.905 55.1541ZM212.054 48.6463V47.3636H218.497V48.6463H216.007V55H214.555V48.6463H212.054ZM220.07 55V47.3636H221.556V50.5653H222.272L224.793 47.3636H226.632L223.674 51.0774L226.667 55H224.822L222.521 51.9474H221.556V55H220.07ZM230.044 55.169C229.56 55.169 229.122 55.0795 228.731 54.9006C228.34 54.7183 228.03 54.4548 227.802 54.1101C227.576 53.7654 227.464 53.3428 227.464 52.8423C227.464 52.4115 227.546 52.0568 227.712 51.7784C227.878 51.5 228.102 51.2796 228.383 51.1172C228.665 50.9548 228.98 50.8321 229.328 50.7493C229.676 50.6664 230.031 50.6035 230.392 50.5604C230.849 50.5073 231.22 50.4643 231.506 50.4311C231.791 50.3946 231.998 50.3366 232.127 50.2571C232.256 50.1776 232.321 50.0483 232.321 49.8693V49.8345C232.321 49.4003 232.198 49.0639 231.953 48.8253C231.711 48.5866 231.35 48.4673 230.869 48.4673C230.369 48.4673 229.974 48.5784 229.686 48.8004C229.401 49.0192 229.204 49.2628 229.094 49.5312L227.697 49.2131C227.863 48.7491 228.105 48.3745 228.423 48.0895C228.745 47.8011 229.114 47.5923 229.532 47.4631C229.949 47.3305 230.389 47.2642 230.849 47.2642C231.154 47.2642 231.477 47.3007 231.819 47.3736C232.163 47.4432 232.485 47.5724 232.783 47.7614C233.085 47.9503 233.332 48.2204 233.524 48.5717C233.716 48.9197 233.812 49.3722 233.812 49.929V55H232.361V53.956H232.301C232.205 54.1482 232.061 54.3371 231.868 54.5227C231.676 54.7083 231.429 54.8625 231.128 54.9851C230.826 55.1077 230.465 55.169 230.044 55.169ZM230.367 53.9759C230.778 53.9759 231.129 53.8946 231.421 53.7322C231.716 53.5698 231.94 53.3577 232.092 53.0959C232.248 52.8307 232.326 52.5473 232.326 52.2457V51.2614C232.273 51.3144 232.17 51.3641 232.018 51.4105C231.868 51.4536 231.698 51.4917 231.506 51.5249C231.313 51.5547 231.126 51.5829 230.944 51.6094C230.761 51.6326 230.609 51.6525 230.486 51.669C230.198 51.7055 229.934 51.7668 229.696 51.853C229.461 51.9392 229.272 52.0634 229.129 52.2259C228.99 52.3849 228.92 52.5971 228.92 52.8622C228.92 53.2301 229.056 53.5085 229.328 53.6974C229.6 53.883 229.946 53.9759 230.367 53.9759Z" fill="#0042DB"/>
</svg>
